<svg width="40" height="40" viewBox="0 0 40 40" fill="none" xmlns="http://www.w3.org/2000/svg">
<g clip-path="url(#clip0_1175_5328)">
<path d="M20 1.5C30.2173 1.5 38.5 9.78273 38.5 20C38.5 30.2173 30.2173 38.5 20 38.5C9.78273 38.5 1.5 30.2173 1.5 20C1.5 9.78273 9.78273 1.5 20 1.5Z" stroke="#1B1B1B" stroke-width="2"/>
<path d="M27.5832 16.4667H22.6249V15H27.5832V16.4667ZM28.8057 23.8C28.4927 24.7511 27.3685 26 25.1926 26C23.0152 26 21.2514 24.7321 21.2514 21.8383C21.2514 18.971 22.8983 17.497 25.1232 17.497C27.3062 17.497 28.6393 18.8038 28.9304 20.7427C28.9857 21.1138 29.0076 21.6139 28.9977 22.3121H23.312C23.404 24.6668 25.7791 24.7409 26.5618 23.8H28.8057ZM23.3615 20.8667H26.8784C26.804 19.7322 26.0737 19.2394 25.1239 19.2394C24.0855 19.2394 23.511 19.8026 23.3615 20.8667ZM16.58 25.9912H12V15.0154H16.925C20.8038 15.0748 20.8774 19.0077 18.8516 20.0798C21.3031 21.0038 21.3853 25.9912 16.58 25.9912ZM14.125 19.4H16.6636C18.4401 19.4 18.722 17.2 16.4426 17.2H14.125V19.4ZM16.5269 21.6H14.125V23.8117H16.4915C18.6554 23.8117 18.523 21.6 16.5269 21.6Z" fill="#1B1B1B"/>
</g>
<defs>
<clipPath id="clip0_1175_5328">
<rect width="40" height="40" fill="white"/>
</clipPath>
</defs>
</svg>
