<svg width="40" height="40" viewBox="0 0 40 40" fill="none" xmlns="http://www.w3.org/2000/svg">
<g clip-path="url(#clip0_1175_5315)">
<path d="M20 1.5C30.2173 1.5 38.5 9.78273 38.5 20C38.5 30.2173 30.2173 38.5 20 38.5C9.78273 38.5 1.5 30.2173 1.5 20C1.5 9.78273 9.78273 1.5 20 1.5Z" stroke="#1B1B1B" stroke-width="2"/>
<path d="M28 16.6514V23.7498C28 24.3236 27.7808 24.8758 27.387 25.2934C26.9933 25.7109 26.4549 25.9622 25.882 25.9959L25.75 25.9996H15.25C14.6761 25.9997 14.1239 25.7804 13.7063 25.3867C13.2887 24.993 13.0374 24.4546 13.0038 23.8818L13 23.7498V16.6514L20.0837 21.3739L20.1707 21.4234C20.2733 21.4735 20.3859 21.4995 20.5 21.4995C20.6141 21.4995 20.7267 21.4735 20.8293 21.4234L20.9163 21.3739L28 16.6514Z" fill="#1B1B1B"/>
<path d="M25.7502 14C26.5602 14 27.2705 14.4275 27.6665 15.0702L20.5002 19.8475L13.334 15.0702C13.5221 14.7648 13.7805 14.5088 14.0876 14.3236C14.3947 14.1384 14.7416 14.0292 15.0995 14.0052L15.2502 14H25.7502Z" fill="#1B1B1B"/>
</g>
<defs>
<clipPath id="clip0_1175_5315">
<rect width="40" height="40" fill="white"/>
</clipPath>
</defs>
</svg>
