<svg width="40" height="40" viewBox="0 0 40 40" fill="none" xmlns="http://www.w3.org/2000/svg">
<g clip-path="url(#clip0_1175_5296)">
<path d="M20 1.5C30.2173 1.5 38.5 9.78273 38.5 20C38.5 30.2173 30.2173 38.5 20 38.5C9.78273 38.5 1.5 30.2173 1.5 20C1.5 9.78273 9.78273 1.5 20 1.5Z" stroke="#1B1B1B" stroke-width="2"/>
<path d="M25.3243 14C25.7866 14 26.1353 14.3866 25.9488 15.1058L23.6862 25.2745C23.5281 25.9975 23.0699 26.1715 22.4374 25.8351L17.0406 22.0344C17.0196 22.0201 17.0026 22.0012 16.9908 21.9794C16.9791 21.9575 16.9729 21.9333 16.9729 21.9087C16.9729 21.8842 16.9791 21.86 16.9908 21.8381C17.0026 21.8163 17.0196 21.7974 17.0406 21.7831L23.2726 16.4165C23.5565 16.1768 23.2118 16.0608 22.8388 16.2773L15.0173 20.9827C14.9935 20.9975 14.9666 21.0069 14.9385 21.0102C14.9104 21.0136 14.8819 21.0108 14.8551 21.0021L11.5343 20.0007C10.7963 19.7957 10.7963 19.3124 11.7005 18.9683L24.9878 14.0812C25.0933 14.0334 25.2077 14.0058 25.3243 14Z" fill="#1B1B1B"/>
</g>
<defs>
<clipPath id="clip0_1175_5296">
<rect width="40" height="40" fill="white"/>
</clipPath>
</defs>
</svg>
